<svg width="315" height="254" viewBox="0 0 315 254" fill="none" xmlns="http://www.w3.org/2000/svg">
<path d="M129.312 253.376C128.352 253.248 127.04 252.992 125.376 252.608C123.712 252.288 122.016 251.616 120.288 250.592C118.56 249.568 117.088 248 115.872 245.888C114.656 243.84 114.048 241.088 114.048 237.632C114.048 233.664 114.848 229.312 116.448 224.576C118.112 219.776 120.128 214.784 122.496 209.6C124.864 204.416 127.136 199.296 129.312 194.24C131.04 190.208 131.904 187.136 131.904 185.024C131.904 182.912 131.104 181.856 129.504 181.856C127.712 181.856 125.024 183.296 121.44 186.176C117.92 188.992 113.824 193.28 109.152 199.04C107.936 200.576 106.368 202.72 104.448 205.472C102.528 208.16 100.48 211.168 98.304 214.496C96.128 217.76 93.984 221.088 91.872 224.48C89.824 227.808 88 230.88 86.4 233.696C84.864 236.512 83.744 238.752 83.04 240.416C82.208 242.4 81.248 243.744 80.16 244.448C79.072 245.216 78.048 245.6 77.088 245.6C76.256 245.6 75.52 245.376 74.88 244.928C74.304 244.48 74.016 243.936 74.016 243.296C74.016 242.912 74.112 242.592 74.304 242.336C74.688 241.568 75.712 239.712 77.376 236.768C79.04 233.824 80.928 229.92 83.04 225.056C85.152 220.128 87.168 214.432 89.088 207.968C91.072 201.44 92.544 194.24 93.504 186.368C93.632 185.472 93.696 184.512 93.696 183.488C93.696 181.248 93.312 179.616 92.544 178.592C91.776 177.504 90.752 176.96 89.472 176.96C88.064 176.96 86.464 177.568 84.672 178.784C82.88 180 81.056 181.76 79.2 184.064C76 188.096 73.184 191.84 70.752 195.296C68.32 198.688 66.08 202.08 64.032 205.472C62.048 208.864 60.064 212.48 58.08 216.32C56.16 220.16 54.112 224.48 51.936 229.28C49.76 234.016 47.264 239.52 44.448 245.792C44 246.816 43.232 247.552 42.144 248C41.12 248.448 40.16 248.672 39.264 248.672C38.368 248.672 37.632 248.48 37.056 248.096C36.48 247.712 36.288 247.168 36.48 246.464C38.144 243.904 39.936 240.672 41.856 236.768C43.776 232.864 45.696 228.608 47.616 224C49.6 219.328 51.424 214.624 53.088 209.888C54.816 205.088 56.288 200.576 57.504 196.352C58.72 192.064 59.552 188.352 60 185.216C60.128 184.192 60.224 183.232 60.288 182.336C60.352 181.44 60.384 180.576 60.384 179.744C60.384 174.816 59.328 171.296 57.216 169.184C55.168 167.072 52.512 166.016 49.248 166.016C46.496 166.016 43.488 166.656 40.224 167.936C37.024 169.152 33.76 170.848 30.432 173.024C27.168 175.2 24.032 177.728 21.024 180.608C18.016 183.424 15.36 186.464 13.056 189.728C10.752 192.928 8.992 196.192 7.776 199.52C6.944 201.888 6.304 204.16 5.856 206.336C5.472 208.448 5.28 210.432 5.28 212.288C5.28 215.872 5.92 218.912 7.2 221.408C8.544 223.904 10.304 225.792 12.48 227.072C14.72 228.352 17.12 228.992 19.68 228.992C20.576 228.992 21.568 228.896 22.656 228.704C23.808 228.448 24.768 228.192 25.536 227.936C27.392 227.232 29.184 226.144 30.912 224.672C32.64 223.136 34.176 221.376 35.52 219.392C36.864 217.408 37.92 215.392 38.688 213.344C39.456 211.296 39.84 209.376 39.84 207.584C39.84 205.728 39.328 204.192 38.304 202.976C37.28 201.76 35.648 201.152 33.408 201.152C33.152 201.152 32.864 201.184 32.544 201.248C32.288 201.248 32 201.248 31.68 201.248H31.392C30.944 201.248 30.528 201.184 30.144 201.056C29.76 200.864 29.568 200.64 29.568 200.384C29.568 200.128 29.888 199.84 30.528 199.52C31.232 199.2 32.48 199.04 34.272 199.04C37.152 199.04 39.296 199.904 40.704 201.632C42.176 203.296 42.912 205.44 42.912 208.064C42.912 210.432 42.272 212.992 40.992 215.744C39.712 218.496 37.792 221.12 35.232 223.616C32.672 226.112 29.44 228.16 25.536 229.76C23.232 230.656 20.992 231.104 18.816 231.104C15.616 231.104 12.576 230.304 9.696 228.704C6.816 227.04 4.48 224.704 2.688 221.696C0.896 218.624 0 215.008 0 210.848C0 208.992 0.192 207.04 0.576 204.992C1.024 202.88 1.728 200.704 2.688 198.464C4.8 193.536 7.648 188.992 11.232 184.832C14.88 180.608 18.912 176.96 23.328 173.888C27.744 170.752 32.224 168.32 36.768 166.592C41.312 164.864 45.536 164 49.44 164C54.176 164 58.08 165.408 61.152 168.224C64.288 171.04 65.856 175.584 65.856 181.856C65.856 182.304 65.824 182.912 65.76 183.68C65.76 184.384 65.728 184.928 65.664 185.312C65.28 188.576 64.608 191.84 63.648 195.104C62.752 198.368 61.76 201.504 60.672 204.512C60.48 205.024 60.32 205.568 60.192 206.144C60.128 206.656 60.096 207.008 60.096 207.2C60.096 207.52 60.16 207.68 60.288 207.68C60.544 207.68 61.056 207.008 61.824 205.664C63.296 202.976 64.608 200.64 65.76 198.656C66.976 196.608 68.16 194.752 69.312 193.088C70.464 191.424 71.712 189.728 73.056 188C74.4 186.272 75.936 184.352 77.664 182.24C79.648 179.872 81.92 177.984 84.48 176.576C87.04 175.168 89.504 174.464 91.872 174.464C93.984 174.464 95.776 175.168 97.248 176.576C98.72 177.984 99.456 180.384 99.456 183.776C99.456 184.16 99.456 184.48 99.456 184.736C99.456 184.992 99.424 185.376 99.36 185.888C98.784 192.032 97.568 198.08 95.712 204.032C93.856 209.92 91.936 215.872 89.952 221.888C91.936 218.816 94.624 214.912 98.016 210.176C101.408 205.44 105.12 200.544 109.152 195.488C114.08 189.344 118.656 184.736 122.88 181.664C127.104 178.592 130.592 177.056 133.344 177.056C136.8 177.056 138.528 179.168 138.528 183.392C138.528 184.992 138.208 186.912 137.568 189.152C136.992 191.392 136.064 193.76 134.784 196.256C133.376 199.072 131.808 202.336 130.08 206.048C128.416 209.696 126.816 213.536 125.28 217.568C123.744 221.6 122.464 225.568 121.44 229.472C120.48 233.312 120 236.864 120 240.128C120 243.648 120.8 246.496 122.4 248.672C124.064 250.912 126.912 251.968 130.944 251.84H131.52C132.48 251.84 132.96 252.032 132.96 252.416C132.96 252.672 132.64 252.928 132 253.184C131.36 253.44 130.464 253.504 129.312 253.376Z" fill="#FFEDDF"/>
<path d="M138.714 242.72C136.346 242.72 134.202 241.952 132.282 240.416C130.426 238.88 129.498 236.544 129.498 233.408C129.498 230.528 130.202 227.456 131.61 224.192C133.018 220.864 134.81 217.952 136.986 215.456C138.842 213.28 140.922 211.488 143.226 210.08C145.53 208.672 147.706 207.968 149.754 207.968C151.162 207.968 152.378 208.352 153.402 209.12C154.49 209.952 155.034 211.136 155.034 212.672C155.034 214.272 154.426 216.032 153.21 217.952C151.994 219.872 150.266 221.664 148.026 223.328C147.066 224.032 145.85 224.704 144.378 225.344C142.906 225.984 141.434 226.528 139.962 226.976C138.49 227.36 137.274 227.552 136.314 227.552C135.994 228.32 135.674 229.344 135.354 230.624C135.098 231.904 134.97 233.216 134.97 234.56C134.97 236.16 135.29 237.6 135.93 238.88C136.57 240.16 137.754 240.8 139.482 240.8C141.594 240.8 143.514 240.192 145.242 238.976C146.97 237.76 148.506 236.256 149.85 234.464C151.194 232.608 152.314 230.752 153.21 228.896C154.17 227.04 154.938 225.472 155.514 224.192C155.898 223.296 156.41 222.848 157.05 222.848C157.37 222.848 157.53 223.008 157.53 223.328C157.53 223.584 157.434 223.904 157.242 224.288C156.346 226.208 155.386 228.256 154.362 230.432C153.338 232.544 152.122 234.56 150.714 236.48C149.306 238.336 147.61 239.84 145.626 240.992C143.706 242.144 141.402 242.72 138.714 242.72ZM136.986 225.824C137.882 225.824 139.386 225.504 141.498 224.864C143.61 224.16 145.53 223.072 147.258 221.6C148.922 220.128 150.202 218.528 151.098 216.8C151.994 215.008 152.442 213.504 152.442 212.288C152.442 210.88 151.93 210.176 150.906 210.176C150.138 210.176 149.082 210.688 147.738 211.712C146.394 212.736 144.73 214.464 142.746 216.896C141.53 218.432 140.378 220.096 139.29 221.888C138.202 223.68 137.434 224.992 136.986 225.824Z" fill="#FFEDDF"/>
<path d="M146.687 242.816C149.055 238.272 151.295 233.728 153.407 229.184C155.519 224.576 157.663 220.224 159.839 216.128C161.119 213.824 162.175 212.224 163.007 211.328C163.903 210.368 165.087 209.888 166.559 209.888C167.071 209.888 167.615 209.984 168.191 210.176C168.767 210.304 169.343 210.368 169.919 210.368C170.303 210.368 170.591 210.336 170.783 210.272C169.887 210.784 168.735 212.064 167.327 214.112C165.919 216.096 164.479 218.4 163.007 221.024C161.535 223.648 160.223 226.112 159.071 228.416C160.287 226.944 161.534 225.472 162.814 224C164.158 222.528 165.63 221.12 167.23 219.776C168.638 218.56 170.11 217.248 171.646 215.84C173.246 214.368 174.815 213.12 176.351 212.096C177.887 211.072 179.231 210.56 180.383 210.56C180.831 210.56 181.119 210.592 181.247 210.656C182.463 211.168 183.071 212 183.071 213.152C183.071 213.536 182.91 214.112 182.59 214.88C181.758 217.056 180.671 219.296 179.327 221.6C178.047 223.84 176.83 226.112 175.678 228.416C176.638 227.264 177.822 225.856 179.23 224.192C180.702 222.528 182.174 221.056 183.646 219.776C185.055 218.496 186.847 217.152 189.023 215.744C191.199 214.336 193.342 213.12 195.454 212.096C197.566 211.072 199.263 210.56 200.543 210.56C200.991 210.56 201.311 210.592 201.503 210.656C201.503 210.656 201.151 211.296 200.447 212.576C199.743 213.792 198.847 215.424 197.758 217.472C196.734 219.456 195.678 221.6 194.59 223.904C193.503 226.144 192.511 228.32 191.615 230.432C190.783 232.48 190.238 234.208 189.982 235.616C189.79 236.448 189.695 237.216 189.695 237.92C189.695 238.944 189.887 239.616 190.271 239.936C190.655 240.256 191.071 240.416 191.519 240.416C192.799 240.416 194.11 239.744 195.454 238.4C196.798 237.056 198.079 235.456 199.295 233.6C200.575 231.68 201.695 229.824 202.655 228.032C203.615 226.176 204.319 224.768 204.767 223.808C205.151 223.104 205.535 222.752 205.919 222.752C206.303 222.752 206.495 223.008 206.495 223.52C206.495 223.84 206.399 224.192 206.207 224.576C205.439 226.048 204.511 227.808 203.423 229.856C202.398 231.904 201.215 233.92 199.871 235.904C198.527 237.824 197.023 239.456 195.359 240.8C193.759 242.08 192.031 242.72 190.174 242.72C188.83 242.72 187.455 242.272 186.047 241.376C184.703 240.48 184.031 238.816 184.031 236.384C184.031 235.04 184.319 233.408 184.895 231.488C185.343 230.208 186.015 228.736 186.911 227.072C187.871 225.408 189.023 223.488 190.367 221.312C191.007 220.224 191.327 219.36 191.327 218.72C191.327 217.952 190.942 217.568 190.174 217.568C189.535 217.568 188.639 217.888 187.487 218.528C186.399 219.168 185.023 220.288 183.359 221.888C182.335 222.848 181.119 224.192 179.711 225.92C178.367 227.584 176.991 229.408 175.583 231.392C174.175 233.376 172.959 235.328 171.935 237.248C170.911 239.168 170.239 240.864 169.919 242.336C168.959 242.336 168.191 241.952 167.615 241.184C167.039 240.352 166.751 239.392 166.751 238.304C166.751 238.112 166.751 237.92 166.751 237.728C166.751 237.536 166.782 237.312 166.846 237.056C167.166 235.072 167.679 233.216 168.383 231.488C169.087 229.76 169.887 227.968 170.783 226.112C171.487 224.768 172.191 223.328 172.895 221.792C173.599 220.192 173.951 218.976 173.951 218.144C173.951 217.632 173.759 217.376 173.375 217.376C172.927 217.376 172.191 217.728 171.167 218.432C170.143 219.072 168.735 220.224 166.943 221.888C165.343 223.424 163.391 225.632 161.087 228.512C158.847 231.392 156.383 235.488 153.695 240.8C153.311 241.504 152.863 241.952 152.351 242.144C151.839 242.272 151.039 242.336 149.951 242.336C149.247 242.336 148.671 242.336 148.223 242.336C147.711 242.4 147.199 242.56 146.687 242.816Z" fill="#FFEDDF"/>
<path d="M211.37 242.72C209.002 242.72 206.858 241.952 204.938 240.416C203.082 238.88 202.154 236.544 202.154 233.408C202.154 230.528 202.858 227.456 204.266 224.192C205.674 220.864 207.466 217.952 209.642 215.456C211.498 213.28 213.578 211.488 215.882 210.08C218.186 208.672 220.362 207.968 222.41 207.968C223.818 207.968 225.034 208.352 226.058 209.12C227.146 209.952 227.69 211.136 227.69 212.672C227.69 214.272 227.082 216.032 225.866 217.952C224.65 219.872 222.922 221.664 220.682 223.328C219.722 224.032 218.506 224.704 217.034 225.344C215.562 225.984 214.09 226.528 212.618 226.976C211.146 227.36 209.93 227.552 208.97 227.552C208.65 228.32 208.33 229.344 208.01 230.624C207.754 231.904 207.626 233.216 207.626 234.56C207.626 236.16 207.946 237.6 208.586 238.88C209.226 240.16 210.41 240.8 212.138 240.8C214.25 240.8 216.17 240.192 217.898 238.976C219.626 237.76 221.162 236.256 222.506 234.464C223.85 232.608 224.97 230.752 225.866 228.896C226.826 227.04 227.594 225.472 228.17 224.192C228.554 223.296 229.066 222.848 229.706 222.848C230.026 222.848 230.186 223.008 230.186 223.328C230.186 223.584 230.09 223.904 229.898 224.288C229.002 226.208 228.042 228.256 227.018 230.432C225.994 232.544 224.778 234.56 223.37 236.48C221.962 238.336 220.266 239.84 218.282 240.992C216.362 242.144 214.058 242.72 211.37 242.72ZM209.642 225.824C210.538 225.824 212.042 225.504 214.154 224.864C216.266 224.16 218.186 223.072 219.914 221.6C221.578 220.128 222.858 218.528 223.754 216.8C224.65 215.008 225.098 213.504 225.098 212.288C225.098 210.88 224.586 210.176 223.562 210.176C222.794 210.176 221.738 210.688 220.394 211.712C219.05 212.736 217.386 214.464 215.402 216.896C214.186 218.432 213.034 220.096 211.946 221.888C210.858 223.68 210.09 224.992 209.642 225.824Z" fill="#FFEDDF"/>
<path d="M219.247 243.104C221.551 238.432 223.759 233.824 225.871 229.28C228.047 224.672 230.255 220.288 232.495 216.128C233.775 213.824 234.831 212.224 235.663 211.328C236.559 210.368 237.743 209.888 239.215 209.888C239.727 209.888 240.271 209.984 240.847 210.176C241.423 210.304 241.999 210.368 242.575 210.368C242.959 210.368 243.247 210.336 243.439 210.272C242.543 210.784 241.391 212.064 239.983 214.112C238.575 216.096 237.135 218.4 235.663 221.024C234.191 223.648 232.879 226.112 231.727 228.416C232.943 226.944 234.191 225.472 235.471 224C236.815 222.528 238.287 221.12 239.887 219.776C241.423 218.432 243.247 217.056 245.359 215.648C247.535 214.176 249.647 212.96 251.695 212C253.743 211.04 255.375 210.56 256.591 210.56C257.039 210.56 257.359 210.592 257.551 210.656C257.551 210.656 257.199 211.296 256.495 212.576C255.791 213.792 254.895 215.424 253.807 217.472C252.783 219.456 251.727 221.6 250.639 223.904C249.551 226.144 248.559 228.32 247.663 230.432C246.831 232.48 246.287 234.208 246.031 235.616C245.839 236.448 245.743 237.216 245.743 237.92C245.743 238.944 245.935 239.616 246.319 239.936C246.703 240.256 247.119 240.416 247.567 240.416C248.783 240.416 250.063 239.776 251.407 238.496C252.751 237.152 254.031 235.52 255.247 233.6C256.527 231.68 257.647 229.824 258.607 228.032C259.631 226.176 260.367 224.768 260.815 223.808C261.071 223.296 261.263 223.008 261.391 222.944C261.519 222.816 261.711 222.752 261.967 222.752C262.351 222.752 262.543 223.008 262.543 223.52C262.543 223.84 262.447 224.192 262.255 224.576C261.487 226.048 260.559 227.808 259.471 229.856C258.447 231.904 257.263 233.92 255.919 235.904C254.575 237.824 253.103 239.456 251.503 240.8C249.903 242.08 248.175 242.72 246.319 242.72C245.039 242.72 243.695 242.272 242.287 241.376C240.943 240.48 240.271 238.816 240.271 236.384C240.271 235.68 240.335 234.944 240.463 234.176C240.591 233.344 240.815 232.448 241.135 231.488C241.647 230.208 242.255 228.832 242.959 227.36C243.663 225.888 244.815 223.872 246.415 221.312C246.863 220.608 247.119 220.064 247.183 219.68C247.311 219.296 247.375 218.976 247.375 218.72C247.375 217.952 247.023 217.568 246.319 217.568C245.743 217.568 244.879 217.888 243.727 218.528C242.639 219.168 241.263 220.288 239.599 221.888C237.999 223.424 236.079 225.6 233.839 228.416C231.663 231.232 229.135 235.392 226.255 240.896C225.807 241.728 225.295 242.176 224.719 242.24C224.207 242.304 223.471 242.368 222.511 242.432C221.871 242.496 221.263 242.528 220.687 242.528C220.111 242.592 219.631 242.784 219.247 243.104Z" fill="#FFEDDF"/>
<path d="M265.321 242.336C263.529 242.336 261.929 241.728 260.521 240.512C259.113 239.232 258.409 237.248 258.409 234.56C258.409 232.448 258.793 229.856 259.561 226.784C260.393 223.648 261.385 220.416 262.537 217.088C263.753 213.696 264.937 210.624 266.089 207.872H261.001C260.553 207.872 260.329 207.552 260.329 206.912C260.329 206.592 260.393 206.304 260.521 206.048C260.713 205.792 260.969 205.664 261.289 205.664H267.049C268.137 203.232 269.289 200.864 270.505 198.56C271.721 196.256 272.905 194.08 274.057 192.032C275.529 189.472 277.097 187.552 278.761 186.272C280.425 184.992 281.865 184.352 283.081 184.352C284.041 184.352 284.841 184.736 285.481 185.504C286.121 186.208 286.441 187.296 286.441 188.768C286.441 189.664 286.249 190.912 285.865 192.512C285.481 194.048 284.873 195.68 284.041 197.408C283.593 198.304 282.953 199.584 282.121 201.248C281.353 202.912 280.585 204.384 279.817 205.664H284.425C284.873 205.664 285.097 205.984 285.097 206.624C285.097 206.88 285.033 207.168 284.905 207.488C284.777 207.744 284.585 207.872 284.329 207.872H278.665C277.065 210.624 275.241 213.312 273.193 215.936C271.145 218.56 268.713 221.184 265.897 223.808C265.705 224.384 265.449 225.216 265.129 226.304C264.873 227.392 264.617 228.512 264.361 229.664C264.169 230.752 263.977 231.68 263.785 232.448C263.657 233.216 263.593 233.6 263.593 233.6C263.401 234.432 263.305 235.2 263.305 235.904C263.305 237.248 263.625 238.24 264.265 238.88C264.905 239.456 265.641 239.744 266.473 239.744C266.985 239.744 267.497 239.68 268.009 239.552C268.521 239.36 269.097 239.04 269.737 238.592C271.977 236.992 273.929 234.816 275.593 232.064C277.321 229.312 278.825 226.656 280.105 224.096C280.489 223.328 280.873 222.944 281.257 222.944C281.513 222.944 281.641 223.136 281.641 223.52C281.641 223.712 281.545 224.064 281.353 224.576C279.945 227.52 278.761 229.888 277.801 231.68C276.841 233.472 275.913 234.976 275.017 236.192C274.121 237.344 273.065 238.496 271.849 239.648C270.953 240.544 269.929 241.216 268.777 241.664C267.625 242.112 266.473 242.336 265.321 242.336ZM272.905 205.664H277.801C278.697 204 279.529 202.368 280.297 200.768C281.129 199.168 281.865 197.568 282.505 195.968C282.953 194.944 283.337 193.792 283.657 192.512C283.977 191.232 284.137 190.24 284.137 189.536C284.137 188.576 283.913 188.096 283.465 188.096C283.145 188.096 282.665 188.384 282.025 188.96C281.449 189.472 280.713 190.368 279.817 191.648C278.665 193.248 277.513 195.328 276.361 197.888C275.273 200.384 274.121 202.976 272.905 205.664ZM266.665 220.736C268.521 218.816 270.249 216.768 271.849 214.592C273.513 212.416 275.049 210.176 276.457 207.872H271.945C270.921 210.24 269.961 212.544 269.065 214.784C268.169 217.024 267.369 219.008 266.665 220.736Z" fill="#FFEDDF"/>
<path d="M284.537 242.336C282.105 242.336 280.313 241.536 279.161 239.936C278.009 238.272 277.433 236.256 277.433 233.888C277.433 231.008 278.105 228 279.449 224.864C280.729 221.92 282.361 219.232 284.345 216.8C286.329 214.368 288.473 212.416 290.777 210.944C293.081 209.408 295.321 208.64 297.497 208.64C299.929 208.64 301.721 209.44 302.873 211.04C304.025 212.64 304.601 214.656 304.601 217.088C304.601 220.032 303.929 223.04 302.585 226.112C301.817 227.84 300.729 229.76 299.321 231.872C297.913 233.92 296.313 235.808 294.521 237.536C294.905 238.24 295.449 238.848 296.153 239.36C296.857 239.808 297.817 240.032 299.033 240.032C300.569 240.032 302.009 239.392 303.353 238.112C304.761 236.832 306.041 235.296 307.193 233.504C308.345 231.648 309.369 229.792 310.265 227.936C311.161 226.08 311.897 224.576 312.473 223.424C312.665 223.04 312.985 222.848 313.433 222.848C313.689 222.848 313.881 222.976 314.009 223.232C314.137 223.424 314.105 223.744 313.913 224.192C313.529 225.152 312.889 226.592 311.993 228.512C311.097 230.368 310.009 232.32 308.729 234.368C307.449 236.352 305.977 238.048 304.313 239.456C302.649 240.864 300.793 241.568 298.745 241.568C297.337 241.568 296.121 241.344 295.097 240.896C294.073 240.384 293.241 239.776 292.601 239.072C291.257 240.096 289.913 240.896 288.569 241.472C287.225 242.048 285.881 242.336 284.537 242.336ZM285.977 240.224C287.705 240.224 289.561 239.392 291.545 237.728C291.033 236.96 290.649 236.16 290.393 235.328C290.137 234.496 290.009 233.728 290.009 233.024C290.009 231.872 290.265 230.88 290.777 230.048C291.353 229.216 292.217 228.8 293.369 228.8C294.201 228.8 294.873 229.12 295.385 229.76C295.961 230.336 296.249 231.008 296.249 231.776C296.249 231.968 296.217 232.16 296.153 232.352C296.153 232.48 296.121 232.64 296.057 232.832C297.145 231.36 298.169 229.632 299.129 227.648C301.241 223.104 302.297 219.36 302.297 216.416C302.297 214.944 302.009 213.792 301.433 212.96C300.857 212.128 299.993 211.712 298.841 211.712C297.497 211.712 296.025 212.288 294.425 213.44C292.889 214.592 291.385 216.128 289.913 218.048C288.505 219.968 287.257 222.112 286.169 224.48C285.145 226.656 284.313 228.768 283.673 230.816C283.097 232.8 282.809 234.528 282.809 236C282.809 237.28 283.065 238.304 283.577 239.072C284.089 239.84 284.889 240.224 285.977 240.224Z" fill="#FFEDDF"/>
<path d="M222.871 67.532C221.655 66.5296 220.183 65.8859 218.621 65.6734C217.059 65.4609 215.468 65.6879 214.028 66.3289L183.649 79.8039C183.515 79.8769 183.368 79.9224 183.216 79.9377C183.065 79.953 182.912 79.9378 182.766 79.8929C182.62 79.8481 182.485 79.7745 182.368 79.6766C182.251 79.5786 182.155 79.4583 182.085 79.3226L164.339 47.4398C163.619 46.1219 162.558 45.022 161.267 44.2558C159.975 43.4895 158.502 43.0852 157 43.0852C155.498 43.0852 154.025 43.4895 152.733 44.2558C151.442 45.022 150.381 46.1219 149.661 47.4398L131.915 79.3226C131.845 79.4583 131.749 79.5786 131.632 79.6766C131.515 79.7745 131.38 79.8481 131.234 79.8929C131.088 79.9378 130.935 79.953 130.784 79.9377C130.632 79.9224 130.485 79.8769 130.351 79.8039L99.9719 66.3289C98.5367 65.678 96.9477 65.4428 95.3855 65.6502C93.8233 65.8575 92.3506 66.4989 91.1348 67.5016C89.9191 68.5043 89.009 69.828 88.5082 71.3221C88.0073 72.8163 87.9357 74.4211 88.3016 75.9539L103.641 141.103C103.901 142.204 104.382 143.241 105.054 144.151C105.726 145.061 106.576 145.825 107.552 146.397C108.837 147.184 110.315 147.6 111.823 147.6C112.594 147.593 113.362 147.492 114.109 147.299C142.153 139.541 171.776 139.52 199.831 147.239C200.926 147.555 202.073 147.646 203.203 147.505C204.334 147.365 205.424 146.997 206.408 146.424C207.392 145.85 208.249 145.083 208.929 144.168C209.608 143.254 210.094 142.211 210.359 141.103L225.638 75.9539C226.02 74.4321 225.963 72.8332 225.473 71.3427C224.983 69.8521 224.081 68.5308 222.871 67.532ZM218.66 74.2695L203.32 139.419C203.238 139.735 203.046 140.012 202.779 140.201C202.48 140.346 202.142 140.388 201.816 140.321C172.488 132.22 141.512 132.22 112.184 140.321C112.025 140.366 111.86 140.378 111.697 140.356C111.534 140.335 111.377 140.28 111.236 140.195C111.096 140.111 110.973 139.998 110.878 139.865C110.782 139.731 110.715 139.579 110.68 139.419L95.3398 74.2695C95.3049 74.0897 95.3094 73.9044 95.3532 73.7264C95.397 73.5485 95.479 73.3823 95.5934 73.2392C95.7079 73.0961 95.8521 72.9797 96.0161 72.8979C96.18 72.8161 96.3598 72.771 96.543 72.7656L97.0242 72.8859L127.463 86.4211C129.383 87.2855 131.558 87.394 133.554 86.7249C135.55 86.0558 137.22 84.6584 138.231 82.8117L155.977 50.9289C156.072 50.7389 156.218 50.579 156.399 50.4673C156.579 50.3556 156.788 50.2964 157 50.2964C157.212 50.2964 157.421 50.3556 157.601 50.4673C157.782 50.579 157.928 50.7389 158.023 50.9289L175.769 82.8117C176.78 84.6584 178.45 86.0558 180.446 86.7249C182.442 87.394 184.617 87.2855 186.537 86.4211L216.976 72.8859C217.182 72.7945 217.41 72.763 217.633 72.7949C217.857 72.8268 218.067 72.9209 218.239 73.0664C218.415 73.2074 218.548 73.3949 218.622 73.6076C218.696 73.8203 218.71 74.0497 218.66 74.2695Z" fill="#FFEDDF"/>
<path d="M145.96 119.3C145.08 117.3 144.19 115.31 143.29 113.33C142.39 111.33 141.51 109.31 140.65 107.27C140.37 106.63 140.09 105.99 139.81 105.35C139.55 104.69 139.29 104.03 139.03 103.37C138.79 102.71 138.54 102.05 138.28 101.39C138.28 101.61 138.27 101.83 138.25 102.05C138.25 102.27 138.25 102.49 138.25 102.71C138.23 103.43 138.2 104.3 138.16 105.32C138.14 106.32 138.11 107.4 138.07 108.56C138.03 109.7 138 110.85 137.98 112.01C137.96 113.15 137.94 114.23 137.92 115.25C137.9 115.69 137.88 116.13 137.86 116.57C137.86 117.01 137.84 117.42 137.8 117.8C138.18 117.78 138.55 117.76 138.91 117.74C139.29 117.72 139.67 117.7 140.05 117.68V119H134.32V118.01C134.94 117.99 135.39 117.86 135.67 117.62C135.97 117.36 136.16 117.02 136.24 116.6C136.32 116.18 136.37 115.73 136.39 115.25L136.96 101.57C136.98 101.17 136.99 100.77 136.99 100.37C137.01 99.97 137.03 99.58 137.05 99.2C136.69 99.22 136.33 99.24 135.97 99.26C135.61 99.26 135.25 99.27 134.89 99.29V98H139.48L144.64 109.91C144.9 110.51 145.15 111.11 145.39 111.71C145.65 112.31 145.91 112.91 146.17 113.51C146.45 114.11 146.72 114.72 146.98 115.34H147.04C147.26 114.8 147.52 114.16 147.82 113.42C148.12 112.66 148.37 112.01 148.57 111.47C149.45 109.27 150.36 107.07 151.3 104.87C152.26 102.65 153.2 100.36 154.12 98H158.56V98.99C158.06 98.97 157.65 99.07 157.33 99.29C157.01 99.49 156.78 99.83 156.64 100.31C156.5 100.79 156.45 101.44 156.49 102.26L157.27 115.91C157.31 116.25 157.33 116.58 157.33 116.9C157.33 117.22 157.33 117.51 157.33 117.77C157.69 117.75 158.05 117.74 158.41 117.74C158.79 117.72 159.16 117.7 159.52 117.68V119H152.8V118.01C153.42 117.99 153.88 117.84 154.18 117.56C154.48 117.28 154.66 116.88 154.72 116.36C154.8 115.84 154.82 115.2 154.78 114.44L154.18 104.54C154.16 104.22 154.14 103.9 154.12 103.58C154.1 103.26 154.08 102.94 154.06 102.62C154.04 102.3 154.02 101.98 154 101.66C153.94 101.8 153.87 101.95 153.79 102.11C153.73 102.27 153.67 102.44 153.61 102.62L146.86 119.3H145.96ZM166.843 119V118.01C167.603 117.97 168.113 117.79 168.373 117.47C168.653 117.15 168.803 116.72 168.823 116.18C168.863 115.62 168.883 115 168.883 114.32L168.913 110.9L163.693 102.65C163.193 101.85 162.813 101.18 162.553 100.64C162.313 100.1 162.153 99.64 162.073 99.26C161.753 99.28 161.443 99.29 161.143 99.29C160.843 99.29 160.533 99.3 160.213 99.32V98H167.953V98.99C167.033 98.99 166.393 99.13 166.033 99.41C165.673 99.69 165.533 100.08 165.613 100.58C165.713 101.06 165.963 101.62 166.363 102.26L168.763 106.04C168.943 106.32 169.133 106.61 169.333 106.91C169.533 107.21 169.733 107.52 169.933 107.84C170.153 108.14 170.383 108.46 170.623 108.8H170.683C170.903 108.36 171.123 107.94 171.343 107.54C171.563 107.12 171.773 106.72 171.973 106.34L174.523 101.51C174.623 101.31 174.743 101.08 174.883 100.82C175.043 100.54 175.213 100.26 175.393 99.98C175.573 99.68 175.763 99.43 175.963 99.23C175.583 99.25 175.193 99.27 174.793 99.29C174.393 99.29 173.993 99.3 173.593 99.32V98H179.713V98.99C178.733 99.05 177.923 99.39 177.283 100.01C176.663 100.63 176.003 101.58 175.303 102.86C174.623 104.14 173.963 105.37 173.323 106.55C172.703 107.73 172.103 108.88 171.523 110C171.523 110.36 171.513 110.84 171.493 111.44C171.493 112.04 171.493 112.65 171.493 113.27C171.493 113.87 171.493 114.38 171.493 114.8C171.493 115.22 171.493 115.43 171.493 115.43C171.493 115.97 171.483 116.44 171.463 116.84C171.463 117.22 171.443 117.54 171.403 117.8C171.823 117.78 172.233 117.76 172.633 117.74C173.053 117.72 173.473 117.7 173.893 117.68V119H166.843Z" fill="#FFEDDF"/>
<circle cx="157" cy="24" r="8" fill="#FFEDDF"/>
</svg>
